PathFileType	4	(X/Y/Z)	C:\Users\°ÂÌØÂü\Desktop\20210112\bx_n_0_1801-Unnamed.trc
DataRate	CameraRate	NumFrames	NumMarkers	Units	OrigDataRate	OrigDataStartFrame	OrigNumFrames
50.00	50.00	       8	0	mm	50.00	1	       397
Frame#	Time	
		

1	0.000	-704.32190	-73.47479	1541.95776	-619.56409	239.79660	1069.26746	-693.86017	286.21475	874.43573				-597.35742	220.38490	798.03436	-698.58893	271.03638	745.25586	-732.19659	253.53366	641.12256	-701.03314	74.60091	574.44788	-670.30847	17.24286	520.96069	-727.95496	247.34563	575.99347	-675.76752	204.00345	534.71594	-766.02527	259.03558	501.67551	-720.61469	71.60564	216.36598	-647.82300	-66.03469	163.78337	-714.39929	150.67802	217.80296	-764.84003	227.98456	205.63336	-605.89764	-71.28929	159.36852	-882.61194	296.15863	144.60854	-674.83240	55.20986	157.33308	-600.10321	28.58736	166.69147	-548.90839	-26.78827	164.70682	-589.22607	208.07106	174.33086	-652.63898	292.02280	157.02696	-615.39874	297.83887	158.52104	-552.53375	244.36664	166.67862	-528.29248	303.97745	146.42059	-667.97595	115.43124	1850.37744	-725.29333	285.62949	1536.00476	-517.83917	-72.96986	143.28557	-792.97968	38.57022	174.05876	-795.28510	180.28189	184.15236	-815.50867	99.85063	1060.79199	-760.97235	-45.82882	487.86237	-758.02228	-19.03462	206.77943	-875.83881	-78.68930	141.40500	-612.95605	101.50633	1354.24695	-694.10779	143.10924	576.66449	-675.21564	166.41171	158.51358	-679.66248	-72.93955	874.05066	-620.85010	-8.15734	1058.09302	-602.20013	-4.94017	807.63593	-719.86426	-32.40458	568.71692	-695.89795	-61.73406	759.08362	-713.89899	-35.19912	616.21094	
2	0.020	-704.36194	-73.22935	1541.70630	-619.74121	239.89227	1069.21619	-693.95868	286.20425	874.53851				-597.80292	220.46544	797.79730	-699.15173	270.86029	745.14783	-732.41504	253.55992	641.20624	-701.08008	74.88840	574.56543	-670.30511	17.37684	521.11011	-728.20929	247.27061	576.00635	-675.94849	204.04588	534.87708	-766.14270	258.90018	501.61884	-720.61469	71.60564	216.36598	-647.88904	-65.77462	163.58826	-714.41132	150.60458	217.74612	-764.77728	227.86166	205.59373	-605.82880	-71.23636	159.48793	-882.60339	296.33139	144.77888	-674.73560	55.11438	157.20673	-600.07410	28.56461	166.58453	-548.96942	-26.82644	164.52798	-589.22418	207.88635	174.21793	-652.58185	291.85245	157.06746	-615.39874	297.83887	158.52104	-552.54199	244.31184	166.65240	-528.06512	304.10474	146.73299	-667.65338	115.22543	1850.40625	-725.14899	285.88528	1536.09485	-517.88635	-72.87172	143.24289	-792.89551	38.25293	174.24847	-795.42297	180.21127	184.28084	-815.93060	99.75934	1060.78381	-761.04846	-45.51541	487.85535	-758.10541	-19.06640	206.91307	-875.85522	-78.73365	141.22168	-613.10907	101.55126	1354.25061	-694.25781	143.16887	576.77600	-675.51178	166.46898	158.40184	-680.06323	-73.12155	874.24847	-621.40137	-7.89432	1058.02893	-602.57190	-4.90266	807.82654	-719.85205	-32.48360	568.69934	-696.04559	-61.86576	759.06335	-713.93616	-34.86496	616.18091	
3	0.040	-704.50629	-73.06496	1541.62659	-620.07581	239.84041	1069.26733	-693.99640	286.52686	874.71118				-598.11865	220.50253	797.78363	-699.35876	271.16302	745.04889	-732.90363	253.45981	641.06525	-701.11169	74.98785	574.48145	-670.48462	17.38756	520.92365	-728.21405	247.21495	575.93414	-676.14435	204.08832	534.85083	-766.46844	258.91177	501.56152	-720.90002	71.76648	216.21863	-647.90607	-65.82718	163.71109	-714.59235	150.59546	217.74831	-764.89307	227.94052	205.57724	-605.82880	-71.23636	159.48793	-882.43909	296.10382	144.64621	-674.43042	55.05904	157.38354	-600.10321	28.58736	166.69147	-549.05457	-26.80934	164.55460	-589.51251	208.16621	174.28409	-652.58453	291.87766	156.91394	-615.39874	297.83887	158.52104	-552.61725	244.43295	166.69505	-528.11023	304.21655	146.67133	-667.22113	115.32598	1850.40967	-725.15015	286.01025	1536.06445	-517.85974	-73.07893	143.17383	-792.86078	38.24503	174.31178	-795.35767	180.15347	184.30795	-816.19586	99.99813	1061.14209	-760.94623	-45.53084	487.75403	-758.10541	-19.06640	206.91307	-875.82544	-78.66479	141.40070	-613.19489	101.64729	1354.24487	-694.31348	143.27010	576.76306	-675.35809	166.11943	158.76007	-680.54309	-72.94260	874.00452	-621.64758	-7.79638	1058.09692	-602.62848	-4.95573	808.02917	-719.86426	-32.40458	568.71692	-696.52063	-61.59076	759.18451	-714.12061	-35.06971	616.41229	
4	0.060	-704.61963	-73.00734	1541.75415	-620.04462	239.83911	1069.18689	-694.17596	286.58737	874.56396				-598.45490	220.66306	797.80884	-699.45697	271.35544	745.06439	-733.04254	253.43361	641.00256	-701.28430	74.99448	574.32819	-670.40619	17.41389	520.86725	-728.47479	247.00160	575.76776	-676.17566	204.15646	534.94366	-766.66888	259.01556	501.63864	-720.77448	71.67035	216.32231	-647.84656	-65.89693	163.89476	-714.39929	150.67802	217.80296	-764.85803	227.87886	205.51091	-606.10840	-71.26003	159.37108	-882.50342	296.22003	144.72592	-674.83240	55.20986	157.33308	-600.29663	28.41050	166.60083	-548.96320	-26.92393	164.72449	-589.19550	208.03023	174.53262	-652.56281	291.99927	157.05673	-615.39874	297.83887	158.52104	-552.79297	244.44337	166.65659	-528.11072	304.29047	146.63930	-666.89294	114.97527	1850.46509	-725.11560	286.07166	1536.01013	-517.88171	-72.99678	143.09013	-792.90417	38.52310	174.11491	-795.40186	180.12183	184.21803	-816.23102	100.14526	1060.94910	-761.09247	-45.45630	487.81738	-758.13184	-19.09355	206.84979	-875.84363	-78.73923	141.35539	-613.52991	101.79434	1354.16736	-694.58606	143.81143	576.54041	-675.46283	166.24519	158.68692	-680.78284	-72.87806	874.01471	-621.94507	-7.75326	1058.16187	-603.02710	-4.73980	808.01758	-719.86426	-32.40458	568.71692	-697.18414	-60.57102	758.43726	-714.14447	-34.91506	616.55530	
5	0.080	-704.55756	-72.90125	1541.72522	-620.19769	239.90790	1069.30688	-694.37958	287.31271	874.98267				-598.71265	220.70885	797.72308	-699.57147	271.17508	745.02991	-733.43103	253.50179	641.20209	-701.43292	74.98911	574.23499	-670.43427	17.41480	520.77112	-728.66327	246.88876	575.96277	-676.36475	204.23259	535.16669	-766.81299	259.22006	501.66324	-720.62543	71.68624	216.30827	-647.90930	-65.92119	163.79761	-714.59235	150.59546	217.74831	-764.89307	227.94052	205.57724	-606.05353	-71.31213	159.35718	-882.43848	296.14664	144.73779	-674.65265	55.15257	157.02742	-600.11926	28.51489	166.68121	-549.01379	-26.85277	164.57974	-589.55267	208.29997	174.15343	-652.56281	291.99927	157.05673	-615.39874	297.83887	158.52104	-552.67578	244.50514	166.56847	-528.10010	303.99414	146.64998	-666.51721	115.01974	1850.49182	-725.09229	286.11768	1536.01282	-517.83282	-72.87903	143.14296	-792.84839	38.41758	174.33450	-795.44775	180.35828	184.60185	-816.84863	100.31158	1061.06702	-761.12885	-45.38728	487.89075	-758.29517	-18.90981	206.85368	-875.84363	-78.73923	141.35539	-613.65472	102.01914	1354.10779	-694.49249	143.65398	576.85938	-675.46283	166.24519	158.68692	-681.44202	-72.85934	874.14288	-622.28973	-7.31772	1058.36572	-603.19867	-4.83450	808.12036	-720.02411	-32.22171	568.67767	-697.36890	-60.41859	758.23358	-714.30890	-34.62375	616.46515	
6	0.100	-704.90454	-72.69132	1541.88318	-620.90009	239.83597	1069.24304	-694.69708	287.25851	874.98407				-598.82751	220.48219	797.82056	-699.73206	271.30814	745.15704	-733.73163	253.44852	641.02960	-701.19000	75.17387	574.66187	-670.36627	17.49405	520.94995	-728.90906	247.17795	576.29199	-676.49164	204.30597	535.45593	-766.97705	259.18610	501.63828	-720.73718	71.70435	216.25726	-648.09430	-65.77415	163.65257	-714.47784	150.77345	217.74683	-764.77728	227.86166	205.59373	-605.98706	-71.29118	159.25533	-882.56390	296.09528	144.66344	-674.49799	55.09256	157.27383	-600.24603	28.48442	166.60100	-549.01129	-26.83778	164.68513	-589.72028	208.30081	174.40152	-652.73444	292.05338	157.08786	-615.38531	297.87808	158.54034	-552.66144	244.62901	166.51772	-528.14520	304.10596	146.58832	-666.21478	115.09145	1850.44214	-725.04779	286.28055	1535.90515	-517.88171	-72.99678	143.09013	-793.42218	38.56202	174.46326	-795.32782	180.12410	184.38057	-816.99597	100.47728	1060.90442	-761.24921	-44.76699	487.85889	-758.27032	-18.85107	206.81834	-875.99792	-78.69180	141.55168	-613.78467	102.00502	1354.20959	-694.53174	144.10855	576.96582	-675.35809	166.11943	158.76007	-681.59973	-72.57027	874.27399	-622.58936	-7.41268	1058.50464	-603.19867	-4.83450	808.12036	-720.12537	-32.23605	568.78735	-697.46698	-60.25724	758.21570	-714.41046	-34.44461	616.47522	
7	0.120	-704.94263	-72.62663	1541.76221	-621.15509	240.37456	1069.47278	-694.68579	287.64700	875.04376				-599.20129	220.14426	798.15729	-699.79846	271.34204	745.11945	-733.74420	253.71393	641.17444	-700.87964	75.33897	574.74524	-670.47437	17.61166	520.99213	-729.07758	247.22670	576.37512	-676.54779	204.14833	535.33234	-766.93323	259.09488	501.69028	-720.79437	71.81920	215.90105	-648.00671	-65.77213	163.79781	-714.29474	150.70700	217.63339	-764.89307	227.94052	205.57724	-605.99487	-71.32040	159.43559	-882.53778	296.17291	144.65536	-674.83160	54.99115	157.12549	-600.18787	28.38572	166.73271	-549.09338	-26.88365	164.58543	-589.70856	208.37772	174.47823	-652.73444	292.05338	157.08786	-615.50708	297.93323	158.52606	-553.00085	244.69669	166.85023	-528.18341	304.11401	146.55998	-665.97345	115.17680	1850.40149	-724.81946	286.37659	1535.96240	-517.85651	-72.78301	143.25087	-793.47998	38.66161	174.38092	-795.36993	180.07951	184.21548	-817.48450	100.67625	1060.94067	-761.09674	-44.68024	487.86508	-758.13336	-18.95680	207.06403	-875.85034	-78.68372	141.27127	-613.79999	102.15766	1354.16211	-694.63562	144.01323	577.06177	-675.35809	166.11943	158.76007	-681.64758	-72.49333	874.32367	-622.76752	-7.29289	1058.42944	-603.28992	-4.87919	808.12219	-720.26648	-32.17970	569.26727	-697.96106	-59.66263	758.10992	-714.63184	-34.52073	616.70154	
8	0.140	-704.98450	-72.67197	1541.95276	-621.39355	240.33900	1069.54529	-694.90515	287.34692	874.35535				-599.41895	220.32106	798.18066	-700.00281	271.20337	745.06970	-734.00348	253.70963	641.25281	-700.54547	75.46979	574.54401	-670.24567	17.79483	521.18451	-729.25452	247.20782	576.24646	-676.67126	204.26439	535.62897	-766.82959	258.96106	501.55661	-720.72028	71.94123	215.88754	-647.95593	-65.94662	163.76328	-714.28485	150.85603	217.80145	-764.91107	227.83482	205.45477	-606.05353	-71.31213	159.35718	-882.42468	295.98312	144.60002	-674.55450	55.16846	157.39536	-600.04510	28.46233	166.60571	-549.07813	-26.97615	164.61829	-589.63617	208.50980	174.65587	-652.60913	292.02588	156.97636	-615.57623	297.73218	158.48236	-552.99457	244.89958	166.90640	-528.14569	304.17987	146.55627	-665.71259	115.16862	1850.28467	-724.63654	286.43079	1535.95459	-517.78503	-73.13693	143.31642	-793.59521	39.00800	174.24570	-795.33551	180.07135	184.22331	-817.74591	100.64156	1060.95337	-760.86316	-44.42910	488.01987	-758.19147	-18.90793	207.15828	-875.85034	-78.68372	141.27127	-613.76819	102.11967	1353.98181	-694.76270	144.06525	577.12225	-675.32037	166.53749	158.44041	-681.89215	-72.50322	874.48914	-623.02832	-7.35269	1058.49133	-603.60010	-4.38646	808.35089	-720.16785	-31.76856	569.34283	-697.95386	-59.46883	758.15765	-714.31250	-34.07455	616.40491	
